{
  "accessors": [
    {
      "bufferView": 2,
      "componentType": 5126,
      "count": 4645,
      "max": [
        0.15593819320201874,
        0.4954397976398468,
        0.2312137633562088
      ],
      "min": [
        -0.1881517767906189,
        -0.466120183467865,
        -0.4137362837791443
      ],
      "type": "VEC3"
    },
    {
      "bufferView": 2,
      "byteOffset": 55740,
      "componentType": 5126,
      "count": 4645,
      "max": [
        1.0,
        0.9973027110099792,
        1.0
      ],
      "min": [
        -1.0,
        -0.9973019361495972,
        -1.0
      ],
      "type": "VEC3"
    },
    {
      "bufferView": 1,
      "componentType": 5126,
      "count": 4645,
      "max": [
        1.0,
        1.0019500255584717
      ],
      "min": [
        0.0,
        -0.0010706186294555664
      ],
      "type": "VEC2"
    },
    {
      "bufferView": 0,
      "componentType": 5125,
      "count": 8106,
      "type": "SCALAR"
    },
    {
      "bufferView": 2,
      "byteOffset": 111480,
      "componentType": 5126,
      "count": 3142,
      "max": [
        0.17427688837051392,
        0.2211698591709137,
        0.24031378328800201
      ],
      "min": [
        -0.20255178213119507,
        -0.21402016282081604,
        0.16334772109985352
      ],
      "type": "VEC3"
    },
    {
      "bufferView": 2,
      "byteOffset": 149184,
      "componentType": 5126,
      "count": 3142,
      "max": [
        1.0,
        1.0,
        1.0
      ],
      "min": [
        -0.9999079704284668,
        -1.0,
        -1.0
      ],
      "type": "VEC3"
    },
    {
      "bufferView": 1,
      "byteOffset": 37160,
      "componentType": 5126,
      "count": 3142,
      "max": [
        1.0,
        1.0070853233337402
      ],
      "min": [
        0.0,
        -0.009209156036376953
      ],
      "type": "VEC2"
    },
    {
      "bufferView": 0,
      "byteOffset": 32424,
      "componentType": 5125,
      "count": 6576,
      "type": "SCALAR"
    },
    {
      "bufferView": 2,
      "byteOffset": 186888,
      "componentType": 5126,
      "count": 863,
      "max": [
        0.15413898229599,
        0.20605984330177307,
        0.24935758113861084
      ],
      "min": [
        -0.1875125765800476,
        -0.1896701455116272,
        0.2403136044740677
      ],
      "type": "VEC3"
    },
    {
      "bufferView": 2,
      "byteOffset": 197244,
      "componentType": 5126,
      "count": 863,
      "max": [
        0.589449942111969,
        0.5589523911476135,
        1.0
      ],
      "min": [
        -0.5490280985832214,
        -0.5195556879043579,
        0.7340181469917297
      ],
      "type": "VEC3"
    },
    {
      "bufferView": 1,
      "byteOffset": 62296,
      "componentType": 5126,
      "count": 863,
      "max": [
        1.0,
        1.000019907951355
      ],
      "min": [
        0.0,
        -0.0003705024719238281
      ],
      "type": "VEC2"
    },
    {
      "bufferView": 0,
      "byteOffset": 58728,
      "componentType": 5125,
      "count": 1161,
      "type": "SCALAR"
    },
    {
      "bufferView": 2,
      "byteOffset": 207600,
      "componentType": 5126,
      "count": 282,
      "max": [
        0.17417821288108826,
        0.12045985460281372,
        0.24910156428813934
      ],
      "min": [
        -0.15225180983543396,
        -0.19891026616096497,
        0.15206214785575867
      ],
      "type": "VEC3"
    },
    {
      "bufferView": 2,
      "byteOffset": 210984,
      "componentType": 5126,
      "count": 282,
      "max": [
        1.0,
        0.43425607681274414,
        0.9905118942260742
      ],
      "min": [
        -0.43105193972587585,
        -0.558233380317688,
        -0.9997156262397766
      ],
      "type": "VEC3"
    },
    {
      "bufferView": 1,
      "byteOffset": 69200,
      "componentType": 5126,
      "count": 282,
      "max": [
        1.0,
        1.0
      ],
      "min": [
        -0.00018715858459472656,
        -0.00018715858459472656
      ],
      "type": "VEC2"
    },
    {
      "bufferView": 0,
      "byteOffset": 63372,
      "componentType": 5125,
      "count": 510,
      "type": "SCALAR"
    },
    {
      "bufferView": 2,
      "byteOffset": 214368,
      "componentType": 5126,
      "count": 4,
      "max": [
        0.11043820530176163,
        0.1609998494386673,
        0.24922379851341248
      ],
      "min": [
        -0.14155179262161255,
        -0.15619014203548431,
        0.2492237389087677
      ],
      "type": "VEC3"
    },
    {
      "bufferView": 2,
      "byteOffset": 214416,
      "componentType": 5126,
      "count": 4,
      "max": [
        0.0,
        -1.8791465095091553e-07,
        1.0
      ],
      "min": [
        -0.0002906215959228575,
        -0.0001679535926086828,
        0.9999999403953552
      ],
      "type": "VEC3"
    },
    {
      "bufferView": 1,
      "byteOffset": 71456,
      "componentType": 5126,
      "count": 4,
      "max": [
        1.0,
        1.0
      ],
      "min": [
        0.0,
        0.0
      ],
      "type": "VEC2"
    },
    {
      "bufferView": 0,
      "byteOffset": 65412,
      "componentType": 5125,
      "count": 6,
      "type": "SCALAR"
    },
    {
      "bufferView": 2,
      "byteOffset": 214464,
      "componentType": 5126,
      "count": 24,
      "max": [
        0.02147821895778179,
        0.03907990828156471,
        -0.21856626868247986
      ],
      "min": [
        -0.050281789153814316,
        -0.014850087463855743,
        -0.2654462456703186
      ],
      "type": "VEC3"
    },
    {
      "bufferView": 2,
      "byteOffset": 214752,
      "componentType": 5126,
      "count": 24,
      "max": [
        0.000964031380135566,
        0.6570812463760376,
        0.7592142224311829
      ],
      "min": [
        -0.0021262308582663536,
        0.6508373618125916,
        0.7538197636604309
      ],
      "type": "VEC3"
    },
    {
      "bufferView": 1,
      "byteOffset": 71488,
      "componentType": 5126,
      "count": 24,
      "max": [
        1.0,
        1.0
      ],
      "min": [
        1.0,
        0.0
      ],
      "type": "VEC2"
    },
    {
      "bufferView": 0,
      "byteOffset": 65436,
      "componentType": 5125,
      "count": 66,
      "type": "SCALAR"
    },
    {
      "bufferView": 2,
      "byteOffset": 215040,
      "componentType": 5126,
      "count": 480,
      "max": [
        0.10829821974039078,
        0.1598198264837265,
        0.249451145529747
      ],
      "min": [
        -0.13978180289268494,
        -0.14530016481876373,
        0.24945105612277985
      ],
      "type": "VEC3"
    },
    {
      "bufferView": 2,
      "byteOffset": 220800,
      "componentType": 5126,
      "count": 480,
      "max": [
        7.116747156032943e-07,
        0.0,
        1.0
      ],
      "min": [
        -1.2566558780235937e-06,
        -4.112560816338373e-07,
        1.0
      ],
      "type": "VEC3"
    },
    {
      "bufferView": 1,
      "byteOffset": 71680,
      "componentType": 5126,
      "count": 480,
      "max": [
        -0.4934388995170593,
        -0.30761799216270447
      ],
      "min": [
        -0.7082729935646057,
        -0.7042909860610962
      ],
      "type": "VEC2"
    },
    {
      "bufferView": 0,
      "byteOffset": 65700,
      "componentType": 5125,
      "count": 1320,
      "type": "SCALAR"
    }
  ],
  "asset": {
    "extras": {
      "author": "iSteven (https://sketchfab.com/Steven007)",
      "license": "CC-BY-NC-SA-4.0 (http://creativecommons.org/licenses/by-nc-sa/4.0/)",
      "source": "https://sketchfab.com/3d-models/apple-watch-4bf804c0b2ed44bd92da4ae23be0753c",
      "title": "Apple Watch"
    },
    "generator": "Sketchfab-12.65.0",
    "version": "2.0"
  },
  "bufferViews": [
    {
      "buffer": 0,
      "byteLength": 70980,
      "name": "floatBufferViews",
      "target": 34963
    },
    {
      "buffer": 0,
      "byteLength": 75520,
      "byteOffset": 70980,
      "byteStride": 8,
      "name": "floatBufferViews",
      "target": 34962
    },
    {
      "buffer": 0,
      "byteLength": 226560,
      "byteOffset": 146500,
      "byteStride": 12,
      "name": "floatBufferViews",
      "target": 34962
    }
  ],
  "buffers": [
    {
      "byteLength": 373060,
      "uri": "scene.bin"
    }
  ],
  "images": [
    {
      "uri": "textures/material_baseColor.jpeg"
    }
  ],
  "materials": [
    {
      "name": "band",
      "pbrMetallicRoughness": {
        "baseColorFactor": [
          0.025165096170800066,
          0.025165096170800066,
          0.025165096170800066,
          1.0
        ],
        "roughnessFactor": 0.6394735002097609
      }
    },
    {
      "doubleSided": true,
      "name": "wmettle",
      "pbrMetallicRoughness": {
        "baseColorFactor": [
          0.6551377908033038,
          0.6551377908033038,
          0.6551377908033038,
          1.0
        ],
        "roughnessFactor": 0.47531281730132
      }
    },
    {
      "doubleSided": true,
      "name": "glck",
      "pbrMetallicRoughness": {
        "baseColorFactor": [
          0.0,
          0.0,
          0.0,
          1.0
        ],
        "metallicFactor": 0.0,
        "roughnessFactor": 0.0
      }
    },
    {
      "doubleSided": true,
      "name": "grey",
      "pbrMetallicRoughness": {
        "baseColorFactor": [
          0.094118,
          0.094118,
          0.094118,
          1.0
        ],
        "roughnessFactor": 0.3597923367361209
      }
    },
    {
      "doubleSided": true,
      "name": "blastic",
      "pbrMetallicRoughness": {
        "baseColorFactor": [
          0.0,
          0.0,
          0.0,
          1.0
        ],
        "metallicFactor": 0.0,
        "roughnessFactor": 0.0
      }
    },
    {
      "doubleSided": true,
      "name": "aniostropic_met",
      "pbrMetallicRoughness": {
        "roughnessFactor": 0.3354722355645
      }
    },
    {
      "doubleSided": true,
      "name": "material",
      "pbrMetallicRoughness": {
        "baseColorTexture": {
          "index": 0
        },
        "metallicFactor": 0.0,
        "roughnessFactor": 0.0
      }
    }
  ],
  "meshes": [
    {
      "name": "Apple Watch.001_band_0",
      "primitives": [
        {
          "attributes": {
            "NORMAL": 1,
            "POSITION": 0,
            "TEXCOORD_0": 2
          },
          "indices": 3,
          "material": 0,
          "mode": 4
        }
      ]
    },
    {
      "name": "Apple Watch.001_wmettle_0",
      "primitives": [
        {
          "attributes": {
            "NORMAL": 5,
            "POSITION": 4,
            "TEXCOORD_0": 6
          },
          "indices": 7,
          "material": 1,
          "mode": 4
        }
      ]
    },
    {
      "name": "Apple Watch.001_glck_0",
      "primitives": [
        {
          "attributes": {
            "NORMAL": 9,
            "POSITION": 8,
            "TEXCOORD_0": 10
          },
          "indices": 11,
          "material": 2,
          "mode": 4
        }
      ]
    },
    {
      "name": "Apple Watch.001_grey_0",
      "primitives": [
        {
          "attributes": {
            "NORMAL": 13,
            "POSITION": 12,
            "TEXCOORD_0": 14
          },
          "indices": 15,
          "material": 3,
          "mode": 4
        }
      ]
    },
    {
      "name": "Apple Watch.001_blastic_0",
      "primitives": [
        {
          "attributes": {
            "NORMAL": 17,
            "POSITION": 16,
            "TEXCOORD_0": 18
          },
          "indices": 19,
          "material": 4,
          "mode": 4
        }
      ]
    },
    {
      "name": "Apple Watch.001_aniostropic met_0",
      "primitives": [
        {
          "attributes": {
            "NORMAL": 21,
            "POSITION": 20,
            "TEXCOORD_0": 22
          },
          "indices": 23,
          "material": 5,
          "mode": 4
        }
      ]
    },
    {
      "name": "Apple Watch.001_icn_0",
      "primitives": [
        {
          "attributes": {
            "NORMAL": 25,
            "POSITION": 24,
            "TEXCOORD_0": 26
          },
          "indices": 27,
          "material": 6,
          "mode": 4
        }
      ]
    }
  ],
  "nodes": [
    {
      "children": [
        1
      ],
      "matrix": [
        1.0,
        0.0,
        0.0,
        0.0,
        0.0,
        2.220446049250313e-16,
        -1.0,
        0.0,
        0.0,
        1.0,
        2.220446049250313e-16,
        0.0,
        0.0,
        0.0,
        0.0,
        1.0
      ],
      "name": "Sketchfab_model"
    },
    {
      "children": [
        2
      ],
      "matrix": [
        1.0,
        0.0,
        0.0,
        0.0,
        0.0,
        0.0,
        1.0,
        0.0,
        0.0,
        -1.0,
        0.0,
        0.0,
        0.0,
        0.0,
        0.0,
        1.0
      ],
      "name": "Apple Watch.fbx"
    },
    {
      "children": [
        3
      ],
      "name": "RootNode"
    },
    {
      "children": [
        4,
        5,
        6,
        7,
        8,
        9,
        10
      ],
      "matrix": [
        100.0,
        0.0,
        0.0,
        0.0,
        0.0,
        -1.629206793918314e-05,
        -99.99999999999868,
        0.0,
        0.0,
        99.99999999999868,
        -1.629206793918314e-05,
        0.0,
        0.0,
        0.0,
        0.0,
        1.0
      ],
      "name": "Apple Watch.001"
    },
    {
      "mesh": 0,
      "name": "Apple Watch.001_band_0"
    },
    {
      "mesh": 1,
      "name": "Apple Watch.001_wmettle_0"
    },
    {
      "mesh": 2,
      "name": "Apple Watch.001_glck_0"
    },
    {
      "mesh": 3,
      "name": "Apple Watch.001_grey_0"
    },
    {
      "mesh": 4,
      "name": "Apple Watch.001_blastic_0"
    },
    {
      "mesh": 5,
      "name": "Apple Watch.001_aniostropic met_0"
    },
    {
      "mesh": 6,
      "name": "Apple Watch.001_icn_0"
    }
  ],
  "samplers": [
    {
      "magFilter": 9729,
      "minFilter": 9987,
      "wrapS": 10497,
      "wrapT": 10497
    }
  ],
  "scene": 0,
  "scenes": [
    {
      "name": "Sketchfab_Scene",
      "nodes": [
        0
      ]
    }
  ],
  "textures": [
    {
      "sampler": 0,
      "source": 0
    }
  ]
}
